<svg xmlns="http://www.w3.org/2000/svg" xmlns:xlink="http://www.w3.org/1999/xlink" viewBox="0 0 427.76 391.52"><defs><style>.cls-1{fill:url(#linear-gradient);}.cls-2{fill:url(#linear-gradient-2);}.cls-3{fill:url(#linear-gradient-3);}.cls-4{fill:url(#linear-gradient-4);}.cls-5{fill:url(#linear-gradient-5);}.cls-6{fill:url(#linear-gradient-6);}.cls-7{fill:url(#linear-gradient-7);}</style><linearGradient id="linear-gradient" x1="30.53" y1="345.75" x2="334.91" y2="345.75" gradientUnits="userSpaceOnUse"><stop offset="0" stop-color="#662d91"/><stop offset="1" stop-color="#92278f"/></linearGradient><linearGradient id="linear-gradient-2" x1="30.54" y1="345.75" x2="334.91" y2="345.75" xlink:href="#linear-gradient"/><linearGradient id="linear-gradient-3" x1="360.2" y1="183.87" x2="437.43" y2="183.87" gradientTransform="translate(613.44 584.47) rotate(-153.51)" xlink:href="#linear-gradient"/><linearGradient id="linear-gradient-4" x1="433.58" y1="224.57" x2="437.43" y2="224.57" gradientTransform="translate(613.44 584.47) rotate(-153.51)" xlink:href="#linear-gradient"/><linearGradient id="linear-gradient-5" x1="0.16" y1="118.46" x2="379.23" y2="118.46" gradientUnits="userSpaceOnUse"><stop offset="0" stop-color="#92278f"/><stop offset="0.3" stop-color="#802990"/><stop offset="0.71" stop-color="#6d2c91"/><stop offset="1" stop-color="#662d91"/></linearGradient><linearGradient id="linear-gradient-6" x1="169.75" y1="131.62" x2="427.76" y2="131.62" xlink:href="#linear-gradient"/><linearGradient id="linear-gradient-7" x1="0" y1="207.49" x2="364.64" y2="207.49" xlink:href="#linear-gradient-5"/></defs><g id="Layer_2" data-name="Layer 2"><g id="Layer_1-2" data-name="Layer 1"><path class="cls-1" d="M332.92,331.58c-5.27-4.19-10.36-8-15.34-11.31q-1.15-.79-2.31-1.53c-.88-.58-1.76-1.14-2.63-1.69-.72-.46-1.45-.9-2.17-1.33-.88-.54-1.76-1.05-2.63-1.55-.65-.38-1.3-.75-1.95-1.1-.23-.14-.45-.26-.67-.37-.53-.3-1.05-.58-1.58-.86l-.41-.22-1.48-.76c-.9-.46-1.78-.9-2.67-1.32-.32-.15-.63-.31-.95-.45l-.07,0-.17-.07c-.28-.14-.56-.26-.83-.38l-1.06-.48c-.52-.23-1-.46-1.57-.67,0,0,0,0,0,0l-1.14-.47a93.54,93.54,0,0,0-10.51-3.64l-.78-.21c-.29-.08-.58-.16-.87-.22-.47-.14-.95-.26-1.43-.37h0c-.67-.16-1.35-.33-2-.47-.83-.18-1.67-.35-2.5-.51-.61-.11-1.23-.23-1.84-.32-.37-.07-.73-.13-1.1-.17s-1-.15-1.45-.21-1.27-.17-1.9-.24c-.32,0-.65-.08-1-.11-.64-.07-1.28-.14-1.92-.18l-.6-.05h-.15c-.65-.06-1.3-.09-2-.12s-1.41-.07-2.11-.09l-.7,0c-18.44-.42-38.78,4.51-64.11,14.61C137.9,337.92,82.6,348.17,30.53,300.24q.67,1.38,1.38,2.73c.46.91.93,1.8,1.41,2.7.37.69.75,1.38,1.13,2.07s.77,1.38,1.16,2.06c.53.92,1.06,1.84,1.6,2.74l.07.13c.45.76.91,1.51,1.37,2.25s1,1.56,1.47,2.33,1,1.54,1.49,2.29l1.35,2c.57.83,1.14,1.65,1.73,2.45s.93,1.29,1.39,1.93c.13.18.25.35.39.52.46.63.93,1.24,1.4,1.85q.39.52.81,1c.27.36.55.7.82,1,.55.69,1.1,1.37,1.66,2.05a.7.7,0,0,0,.08.1c.09.12.19.24.29.35.55.66,1.1,1.31,1.66,2l1.54,1.76c1.09,1.24,2.2,2.44,3.33,3.63l1.79,1.86c.6.6,1.2,1.21,1.81,1.81s1.22,1.18,1.84,1.77l1.86,1.74c.78.71,1.56,1.41,2.35,2.1l1.05.9c.78.69,1.56,1.34,2.35,2s1.3,1.07,2,1.59l2,1.56c1,.77,2,1.51,3,2.25l1.54,1.11c.51.37,1,.73,1.54,1.08.69.47,1.38.94,2.08,1.4,2.08,1.4,4.2,2.73,6.36,4,1.44.86,2.89,1.69,4.36,2.51.7.39,1.41.78,2.13,1.15l.16.09c.77.42,1.56.83,2.35,1.22.28.16.56.29.85.43s.86.44,1.3.65c.67.33,1.35.66,2,1s1.18.56,1.78.84c.34.16.69.32,1.05.47.56.26,1.13.51,1.7.75l1.59.69c.79.35,1.59.68,2.4,1,.65.28,1.31.54,2,.8l.9.35c.54.22,1.09.43,1.64.62,1.9.73,3.82,1.41,5.77,2.07q2.49.84,5,1.62c1.75.54,3.52,1.06,5.3,1.54,1.61.45,3.23.87,4.87,1.28l1.61.4c.67.17,1.35.32,2,.48,1.66.39,3.34.75,5,1.1s3.15.63,4.75.93l3.67.64h0c1.41.23,2.82.45,4.24.66s2.87.42,4.31.61c.77.11,1.54.21,2.32.29l1.34.17,3.23.36,1.82.18,2.94.27q11,1,21.64,1l3,0c2.8,0,5.59-.12,8.37-.26q3.19-.15,6.37-.41c1.06-.09,2.13-.17,3.19-.28.87-.07,1.74-.17,2.62-.26l2-.23c1-.11,2.08-.25,3.12-.39l1.74-.24q2.64-.36,5.25-.81l2.14-.37,2.19-.41,2.16-.43c.66-.13,1.33-.26,2-.41l.44-.09,1.64-.37c1.1-.25,2.2-.5,3.29-.78l2.23-.56,1.38-.36c.46-.11.92-.24,1.37-.37.64-.17,1.28-.35,1.91-.54q2.35-.66,4.7-1.4l1.54-.5c.9-.29,1.8-.59,2.69-.9s1.79-.61,2.68-.94,1.71-.62,2.57-.95c1.42-.53,2.83-1.08,4.24-1.66l1.24-.51c.76-.32,1.52-.63,2.27-1l.24-.1q1.21-.52,2.43-1.08l2.78-1.28,2.51-1.22c.85-.41,1.7-.84,2.55-1.28a.75.75,0,0,1,.13-.06l.77-.4.79-.42,2.2-1.18c2.3-1.24,4.59-2.55,6.85-3.91.67-.4,1.34-.81,2-1.23.35-.22.69-.42,1-.65q3.76-2.39,7.45-5l2.17-1.56c.81-.58,1.61-1.17,2.4-1.75l.08-.07c.82-.62,1.64-1.24,2.46-1.88s1.51-1.18,2.26-1.77l1.54-1.26a1,1,0,0,0,.17-.13l1.26-1c1.28-1.06,2.55-2.16,3.81-3.27.41-.35.82-.71,1.22-1.09a4,4,0,0,0,.32-.28c.69-.62,1.38-1.24,2.06-1.87s1.4-1.29,2.09-1.95q2-1.92,4-3.91c.58-.57,1.14-1.14,1.7-1.72s1-1.06,1.55-1.6Z"/><path class="cls-2" d="M334.91,333.19C291.37,378.87,236,396,174.12,390.57,111.3,385.1,59.55,359.13,30.54,300.24c52.06,47.92,107.36,37.68,165.74,14.39C256.92,290.43,288.94,296,334.91,333.19Z"/><path class="cls-3" d="M325.77,189.61h0l1.07.25a43.36,43.36,0,0,1,8.89,3.28c.56.28,1.12.57,1.67.88a43.31,43.31,0,0,1-10.21,79.82c-.49.13-1,.24-1.48.35l-.34.08-3.2,13.44h.71c1.48,0,3-.05,4.43-.18l-.08.34H328a49.66,49.66,0,0,0,10.9-1.18l1.17-.28c.32-.07.63-.15.94-.24a49.5,49.5,0,0,0-8.48-97.12,44.2,44.2,0,0,0-5.39-.18,45.33,45.33,0,0,0-5.21-.15Z"/><path class="cls-4" d="M325.74,189.68a31.78,31.78,0,0,0-3.87-.88Z"/><path class="cls-5" d="M379.05,185.83h0A219.35,219.35,0,0,0,376.71,161c-6.82-45.32-27.75-83.54-63.8-113.35a220.7,220.7,0,0,0-23.67-17c-1.39-.87-2.77-1.72-4.16-2.53A216,216,0,0,0,263,16.5C238.85,5.53,214.35.05,189.89,0l-2.57,0c-.59,0-1.19,0-1.79,0s-1,0-1.54.05l-1.65.05c-2.51.11-5,.27-7.48.51l-2.32.22L172,1c-1.49.15-3,.32-4.49.54-.41,0-.82.1-1.23.17-.86.11-1.71.23-2.56.37l-3.22.54c-.92.17-1.83.33-2.73.51l-1.1.22-2.46.5a1.53,1.53,0,0,0-.25.06c-1,.22-2.1.47-3.13.71-.88.2-1.76.42-2.65.65h-.06q-.85.21-1.71.45c-.68.17-1.34.35-2,.54l-1.76.5c-.87.25-1.73.51-2.6.78s-1.7.52-2.54.79A209.37,209.37,0,0,0,87.19,32.43C51.45,55.56,27,85,13.27,119.93A189.39,189.39,0,0,0,1.83,165.77,231.37,231.37,0,0,0,.25,200.22h0q.29,11.46,1.61,23.38c.45-2.71.93-5.39,1.42-8.07.24,6.78.73,13.66,1.5,20.69,4.94-30.09,12.39-57.87,23-82.38.32-.76.64-1.51,1-2.26h0a0,0,0,0,1,0,0h0s0,0,0,0C51,101.37,86.67,65.28,141,51.86h0a207.47,207.47,0,0,1,47.22-5.74,209.78,209.78,0,0,1,50,5l.05,0a162.39,162.39,0,0,1,22.89,7l.85.33A149.53,149.53,0,0,1,289.75,73q1.32.87,2.61,1.77c36.82,25.54,60.55,66.7,74.88,117.44A420.24,420.24,0,0,1,377,236.06l0,.2.12.66c0-.26.05-.51.08-.77,0-.06,0-.12,0-.18.74-7.52,1.18-14.87,1.34-22.09q.51-7.4.63-14.59C379.26,194.74,379.22,190.26,379.05,185.83Z"/><path class="cls-6" d="M427.76,28.37l-1.24-1.43-34.3,9.28c0,.12,0,.23,0,.35l-28.44,7.69-1,2.1c1.31,1.12,2.61,2.27,3.91,3.41l0,0c2.56,2.2,5.05,4.47,7.65,6.61,1.21,1.78.57,3.48-1.55,5.59q-34.93,34.68-69.66,69.58c-2.08,2.1-3.58,2.55-5.19,1.72-5-5.06-10.26-9.92-15.14-15.12a10.66,10.66,0,0,0-2.77-2.31c-.37-.39-.75-.76-1.12-1.15-3.05-3.25-4.9-3.87-8.5-.2-20.37,20.77-41.08,41.22-61.66,61.79q-18.12,18.12-36.16,36.32c-1.62,1.64-4.44,3.31-1.66,6.2,4.45,4.63,9,9.19,13.66,14l.29-.21,3.59,3.67a49.24,49.24,0,0,0,4.15-3.27q24.3-24.12,48.53-48.3c11.19-11.17,22.43-22.29,33.46-33.61,2.09-2.13,3.68-2.75,5.45-1.88,5.24,5.47,10.75,10.7,16.18,16a22.85,22.85,0,0,0,2.15,1.78l1.74,1.68a50.24,50.24,0,0,0,3.94,3.14c14.87-14.94,29.41-29.54,43.93-44.15,14.92-15,29.88-30,44.71-45.14,1.91-2,3.57-2.74,5.27-2.12,2.09,2.36,4.32,4.62,6.47,6.94l.57,0c1.11,1.17,2.23,2.33,3.32,3.51l2.43-.2q2.93-11,5.84-22.06c.17,0,.34,0,.51,0Q422.45,48.47,427.76,28.37Z"/><path class="cls-7" d="M364.64,288.49a127.58,127.58,0,0,1-16.38,26.92c-.93,1.16-1.88,2.29-2.84,3.37l-5.63-3.21c-11.28-6.41-21.24-12-30.92-17.82a147.52,147.52,0,0,0-24.7-12l-1-.36-.16-.06c-23.65-8.54-47.85-9.58-73.15-3.28a167.57,167.57,0,0,0-23.64,7.88l-2.16.87c-1.26.51-2.52,1-3.79,1.5l-1.06.42-.4.15-.85.32-1.47.56-1.39.5-1.06.38-.29.11-3.26,1.14c-1.34.46-2.69.9-4.05,1.35l-1,.3c-1.35.43-2.71.85-4.07,1.26l-1.08.33-1.45.41-1.37.38c-.73.21-1.46.41-2.2.6l-2.71.71-.4.1-1.73.43-1,.24-1.08.26-1.79.41-.75.16-.21.05-1.2.25c-.61.13-1.21.26-1.83.37l-.17,0-1.34.26a101.09,101.09,0,0,1-87.89-5C9.18,274-11,220.71,6,173.87A97.82,97.82,0,0,1,16.56,153c20.19-39.47,66.27-63.51,109.13-55.15,44,8.59,73.5,36.89,80.76,77.55,3.28,18.38-1,35.65-10.53,48.82a59.09,59.09,0,0,1-32.78,30.56c2.64-18.44,9.48-39.3,7.67-59.37-3.34-37-43.69-63.63-79-56.15-20.43,4.33-36.74,15.5-47.11,30.31a69.15,69.15,0,0,0-4.86,45.76c8.63,37.33,42.52,66.41,82.49,68.81l.75,0q.81,0,1.62-.09c.78-.06,1.57-.12,2.35-.2l1.14-.13,2-.25,1.25-.19c1.56-.25,3.12-.54,4.67-.87.55-.11,1.1-.23,1.64-.36.88-.21,1.77-.42,2.64-.65h0c.58-.15,1.15-.33,1.73-.49l.1,0,.86-.24.74-.22c.95-.28,1.89-.58,2.82-.89l.18-.06c.71-.23,1.41-.48,2.11-.73l1.51-.55c.82-.31,1.63-.61,2.45-.94l.22-.08,2.21-.91,1.73-.74,1.65-.72,1.44-.66,1.9-.88.3-.14,1.92-.94c1.07-.52,2.13-1.05,3.19-1.6l.59-.3.95-.49,1.35-.72c1.14-.59,2.26-1.21,3.39-1.83l2.9-1.61,3.84-2.18,2.44-1.42,1.42-.83,2-1.16a215.25,215.25,0,0,1,22.46-11.64l.35-.16.62-.26,2.59-1.1.17-.07q3.11-1.29,6.21-2.43l.37-.13c2.18-.8,4.35-1.54,6.53-2.22l.23-.07.22-.07q2.49-.76,5-1.43l.47-.13c1.94-.51,3.88-1,5.83-1.39l.19,0,.32-.07a112.62,112.62,0,0,1,16.55-2.23l.31,0c1.79-.09,3.57-.14,5.35-.15h.19l2.27,0,.84,0c.51,0,1,0,1.54.06l.58,0,.81,0,.67,0h.17l.67.06q2.12.16,4.23.42l.88.11.36,0c.92.13,1.85.26,2.78.42l.29,0q4,.68,8,1.71l.14,0,.17,0,1.19.32.34.09.48.14,1.53.45,1.22.38,1.43.47.58.19.47.17.82.29,1,.36.38.14c1,.38,2,.76,3,1.17l.41.17.8.34.13.06,1.76.76.86.39c.7.33,1.41.66,2.12,1l.52.25q1.38.68,2.76,1.41h0c.38.19.75.39,1.13.6l.67.37.79.45.88.49.94.55.08,0,.3.17.65.4,1.9,1.16.32.2,1,.62.27.18c1,.65,2,1.32,3,2l1.11.77c1,.73,2.09,1.49,3.13,2.27l.07.05c.48.36,1,.72,1.43,1.09l.3.24c.74.57,1.49,1.16,2.23,1.76l.32.26.11.08.2.17,1.08.88,1.06.9.09.08.32.26c.43.37.87.75,1.3,1.14l.33.28.58.52c.68.6,1.37,1.22,2.05,1.85.53.48,1.07,1,1.62,1.42s1.11.94,1.68,1.39,1.15.92,1.75,1.36,1.18.89,1.8,1.31c.87.63,1.76,1.25,2.68,1.86l.3.2c.88.59,1.78,1.18,2.69,1.77l.19.11c.62.4,1.25.8,1.89,1.19,1.53,1,3.09,1.92,4.69,2.9C357,283.66,360.72,285.94,364.64,288.49Z"/></g></g></svg>